<?xml version="1.0" encoding="UTF-8" standalone="no"?>
<svg
   width="647"
   height="647"
   viewBox="0 0 647 647"
   fill="none"
   version="1.1"
   id="svg846"
   sodipodi:docname="logoAva.svg"
   inkscape:version="1.1.2 (b8e25be8, 2022-02-05)"
   xmlns:inkscape="http://www.inkscape.org/namespaces/inkscape"
   xmlns:sodipodi="http://sodipodi.sourceforge.net/DTD/sodipodi-0.dtd"
   xmlns="http://www.w3.org/2000/svg"
   xmlns:svg="http://www.w3.org/2000/svg">
  <defs
     id="defs850">
    <inkscape:path-effect
       effect="fillet_chamfer"
       id="path-effect2683"
       is_visible="true"
       lpeversion="1"
       satellites_param="F,0,0,1,0,28.653827,0,1 @ F,0,0,1,0,11,0,1 @ F,0,0,1,0,11,0,1 @ F,0,0,1,0,11,0,1 @ F,0,0,1,0,11,0,1 @ F,0,0,1,0,11,0,1 | F,0,0,1,0,0.54908274,0,1 @ F,0,0,1,0,28.969115,0,1 @ F,0,0,1,0,29.357746,0,1 @ F,0,1,1,0,1.3255981,0,1 @ F,0,0,1,0,4.0763414,0,1 @ F,0,0,1,0,11,0,1 @ F,0,0,1,0,11,0,1 @ F,0,0,1,0,11,0,1 @ F,0,0,1,0,11,0,1"
       unit="px"
       method="auto"
       mode="F"
       radius="11"
       chamfer_steps="1"
       flexible="false"
       use_knot_distance="true"
       apply_no_radius="true"
       apply_with_radius="true"
       only_selected="false"
       hide_knots="false" />
  </defs>
  <sodipodi:namedview
     id="namedview848"
     pagecolor="#505050"
     bordercolor="#eeeeee"
     borderopacity="1"
     inkscape:pageshadow="0"
     inkscape:pageopacity="0"
     inkscape:pagecheckerboard="0"
     showgrid="false"
     inkscape:zoom="0.41191901"
     inkscape:cx="108.03095"
     inkscape:cy="495.24298"
     inkscape:window-width="1680"
     inkscape:window-height="774"
     inkscape:window-x="0"
     inkscape:window-y="23"
     inkscape:window-maximized="0"
     inkscape:current-layer="layer1"
     showguides="true"
     inkscape:guide-bbox="true">
    <sodipodi:guide
       position="234.11976,386.04951"
       orientation="0.8660254,-0.5"
       id="guide4246"
       inkscape:label=""
       inkscape:locked="false"
       inkscape:color="rgb(138,226,52)" />
    <sodipodi:guide
       position="412.03883,389.01821"
       orientation="0.8660254,0.5"
       id="guide4400"
       inkscape:label=""
       inkscape:locked="false"
       inkscape:color="rgb(138,226,52)" />
    <sodipodi:guide
       position="386.48602,327.16849"
       orientation="0.8660254,-0.5"
       id="guide4668"
       inkscape:label=""
       inkscape:locked="false"
       inkscape:color="rgb(138,226,52)" />
  </sodipodi:namedview>
  <g
     inkscape:groupmode="layer"
     id="layer1"
     inkscape:label="Base"
     style="display:inline">
    <path
       fill-rule="evenodd"
       clip-rule="evenodd"
       d="M 647,323.5 C 647,502.164 502.164,647 323.5,647 144.836,647 0,502.164 0,323.5 0,144.836 144.836,0 323.5,0 502.164,0 647,144.836 647,323.5 Z"
       fill="#006ba6"
       id="path844"
       sodipodi:nodetypes="sssss" />
  </g>
  <g
     inkscape:groupmode="layer"
     id="layer4"
     inkscape:label="AVA"
     sodipodi:insensitive="true"
     style="display:inline" />
  <g
     inkscape:groupmode="layer"
     id="layer2"
     inkscape:label="New"
     style="display:inline;opacity:1">
    <path
       id="path1045"
       style="fill:#ffffff;fill-opacity:1;stroke:none;stroke-width:1px;stroke-linecap:butt;stroke-linejoin:miter;stroke-opacity:1"
       d="m 309.67011,128.85156 -53.89103,95.13595 a 17.568034,17.568034 87.477747 0 0 0.82059,18.62836 l 28.4823,41.32685 a 7.7383288,7.7383288 0.55132218 0 0 12.65763,0.1218 l 20.14385,-28.05677 a 8.639,8.639 177.53231 0 1 13.57572,-0.58506 l 24.90448,29.04375 a 7.762242,7.762242 174.59653 0 0 12.62798,-1.19447 l 23.29854,-40.67239 a 19.203798,19.203798 90.001334 0 0 4.4e-4,-19.09003 L 338.03443,128.784 a 16.32161,16.32161 179.86353 0 0 -28.36432,0.0676 z M 233.85172,261.4297 141.3501,426.80761 c -7.81019,13.96335 -1.17174,25.24396 14.82744,25.21562 133.10201,-0.23577 227.45498,0.61849 338.33587,1.09449 16.2127,0.0696 22.82342,-11.29106 14.7654,-25.36077 L 413.47599,260.48026 a 0.17840859,0.17840859 157.86456 0 0 -0.32756,0.13325 l 1.21013,4.68928 a 9.8238319,9.8238319 98.0655 0 1 -1.05652,7.45566 l -42.9016,72.53913 a 7.696038,7.696038 175.62305 0 1 -12.57503,0.9625 L 331.2742,313.88445 a 8.1708643,8.1708643 177.25007 0 0 -13.10343,0.62938 l -20.71849,30.88445 a 7.7120516,7.7120516 178.82112 0 1 -12.62674,0.25983 L 235.6277,278.4698 a 16.096835,16.096835 85.080511 0 1 -1.50794,-17.51931 z"
       inkscape:path-effect="#path-effect2683"
       inkscape:original-d="M 323.79297,103.91992 250.35742,233.55859 291.32422,293 l 32.97461,-45.92773 39.22516,45.74459 34.23382,-59.76217 z M 234.11976,260.95049 127.2085,452.0905 c 160.83536,-0.46094 264.44043,0.67979 396.66064,1.14192 l -111.05195,-193.90246 2.55995,9.91986 -50.57636,85.5158 -40.50195,-49.38671 -32.97461,49.15429 -62.1952,-84.93849 z"
       sodipodi:nodetypes="ccccccccccccccccc" />
  </g>
  <g
     inkscape:groupmode="layer"
     id="layer3"
     inkscape:label="New 1"
     style="display:none" />
</svg>
