<?xml version="1.0" encoding="UTF-8" standalone="no"?>
<svg
   width="647"
   height="647"
   viewBox="0 0 647 647"
   fill="none"
   version="1.1"
   id="svg846"
   sodipodi:docname="logoAV.svg"
   inkscape:version="1.1.2 (b8e25be8, 2022-02-05)"
   inkscape:export-xdpi="44.513138"
   inkscape:export-ydpi="44.513138"
   xmlns:inkscape="http://www.inkscape.org/namespaces/inkscape"
   xmlns:sodipodi="http://sodipodi.sourceforge.net/DTD/sodipodi-0.dtd"
   xmlns="http://www.w3.org/2000/svg"
   xmlns:svg="http://www.w3.org/2000/svg">
  <defs
     id="defs850">
    <inkscape:path-effect
       effect="fillet_chamfer"
       id="path-effect2683"
       is_visible="true"
       lpeversion="1"
       satellites_param="F,0,0,1,0,28.653827,0,1 @ F,0,0,1,0,11,0,1 @ F,0,0,1,0,11,0,1 @ F,0,0,1,0,29,0,1 @ F,0,0,1,0,11,0,1 @ F,0,0,1,0,11,0,1 | F,0,0,1,0,0.54908274,0,1 @ F,0,0,1,0,28.969115,0,1 @ F,0,0,1,0,29.357746,0,1 @ F,0,0,1,0,0,0,1 @ F,0,0,1,0,7.6170109,0,1 @ F,0,0,1,0,29,0,1 @ F,0,0,1,0,9.9814841,0,1"
       unit="px"
       method="auto"
       mode="F"
       radius="11"
       chamfer_steps="1"
       flexible="false"
       use_knot_distance="true"
       apply_no_radius="true"
       apply_with_radius="true"
       only_selected="false"
       hide_knots="false" />
  </defs>
  <sodipodi:namedview
     id="namedview848"
     pagecolor="#505050"
     bordercolor="#eeeeee"
     borderopacity="1"
     inkscape:pageshadow="0"
     inkscape:pageopacity="0"
     inkscape:pagecheckerboard="0"
     showgrid="false"
     inkscape:zoom="0.61611907"
     inkscape:cx="-187.46376"
     inkscape:cy="383.04284"
     inkscape:window-width="1680"
     inkscape:window-height="774"
     inkscape:window-x="0"
     inkscape:window-y="23"
     inkscape:window-maximized="0"
     inkscape:current-layer="layer1"
     showguides="true"
     inkscape:guide-bbox="true">
    <sodipodi:guide
       position="234.11976,386.04951"
       orientation="0.8660254,-0.5"
       id="guide4246"
       inkscape:label=""
       inkscape:locked="false"
       inkscape:color="rgb(138,226,52)" />
    <sodipodi:guide
       position="412.03883,389.01821"
       orientation="0.8660254,0.5"
       id="guide4400"
       inkscape:label=""
       inkscape:locked="false"
       inkscape:color="rgb(138,226,52)" />
    <sodipodi:guide
       position="304.89112,173.67652"
       orientation="0.8660254,-0.5"
       id="guide4668"
       inkscape:label=""
       inkscape:locked="false"
       inkscape:color="rgb(138,226,52)" />
    <sodipodi:guide
       position="323.95393,552.31647"
       orientation="1,0"
       id="guide917" />
    <sodipodi:guide
       position="340.00499,178.24417"
       orientation="0.8660254,0.5"
       id="guide1043"
       inkscape:label=""
       inkscape:locked="false"
       inkscape:color="rgb(0,0,255)" />
    <sodipodi:guide
       position="347.61091,327.33484"
       orientation="0.8660254,-0.5"
       id="guide1376"
       inkscape:label=""
       inkscape:locked="false"
       inkscape:color="rgb(0,0,255)" />
    <sodipodi:guide
       position="247.87149,418.1549"
       orientation="0.8660254,0.5"
       id="guide1496"
       inkscape:label=""
       inkscape:locked="false"
       inkscape:color="rgb(0,0,255)" />
  </sodipodi:namedview>
  <g
     inkscape:groupmode="layer"
     id="layer1"
     inkscape:label="Base"
     style="display:inline">
    <path
       fill-rule="evenodd"
       clip-rule="evenodd"
       d="M 647,323.5 C 647,502.164 502.164,647 323.5,647 144.836,647 0,502.164 0,323.5 0,144.836 144.836,0 323.5,0 502.164,0 647,144.836 647,323.5 Z"
       fill="#006ba6"
       id="path844"
       sodipodi:nodetypes="sssss" />
  </g>
  <g
     inkscape:groupmode="layer"
     id="layer2"
     inkscape:label="AV"
     style="display:inline;opacity:1">
    <path
       id="path1045"
       style="fill:#ffffff;fill-opacity:1;stroke:none;stroke-width:1px;stroke-linecap:butt;stroke-linejoin:miter;stroke-opacity:1"
       d="m 309.67011,128.85156 -53.89103,95.13595 a 19.192328,19.192328 89.71097 0 0 0.0963,19.08697 l 29.9309,51.61686 a 73277.12,73277.12 59.900579 0 1 11.03304,19.03344 l 12.58816,21.72373 a 16.811303,16.811303 0.01005469 0 0 29.08839,0.005 l 19.4897,-33.60672 a 12197.274,12197.274 120.05926 0 0 11.01969,-19.04116 l 23.2313,-40.22549 a 19.125539,19.125539 90.102346 0 0 0.0341,-19.07069 L 338.03443,128.784 a 16.32161,16.32161 179.86353 0 0 -28.36432,0.0676 z m -77.93909,135.91161 -90.40728,162.02971 c -7.79563,13.97149 -1.14538,25.25869 14.8538,25.23035 133.10201,-0.23577 227.45498,0.61849 338.33587,1.09449 16.2127,0.0696 22.82433,-11.29158 14.76743,-25.36193 l -93.96103,-164.09117 1.50045,2.59886 c 2.10338,3.64316 2.10336,9.54987 6e-5,13.19307 -13.31391,23.06142 -43.26779,74.95363 -78.47806,136.04533 -7.99773,13.87649 -20.98596,13.89113 -29.00685,0.028 -26.01197,-44.95852 -51.36804,-88.88442 -77.34371,-133.95382 -2.75272,-4.77614 -2.74945,-12.51832 0.007,-17.29239 a 37.457372,37.457372 119.16009 0 0 -0.26754,0.47949 z"
       inkscape:path-effect="#path-effect2683"
       inkscape:original-d="m 323.79297,103.91992 -73.43555,129.63867 40.9668,70.64864 32.64304,56.333 39.55673,-68.20895 34.23382,-59.27659 z M 231.99856,264.28368 127.2085,452.0905 c 160.83536,-0.46094 264.44043,0.67979 396.66064,1.14192 l -108.54933,-189.5678 5.30896,9.19538 c -11.80117,20.44023 -51.3936,89.01631 -96.76568,167.76863 -32.8484,-56.72649 -64.30498,-111.21322 -96.85527,-167.70073 z"
       sodipodi:nodetypes="ccccccccccccccc" />
  </g>
</svg>
