<?xml version="1.0" encoding="UTF-8" standalone="no"?>
<svg
   viewBox="0 0 48 48"
   width="48px"
   height="48px"
   version="1.1"
   id="svg3144"
   sodipodi:docname="synchronise.svg"
   inkscape:version="1.1.2 (b8e25be8, 2022-02-05)"
   xmlns:inkscape="http://www.inkscape.org/namespaces/inkscape"
   xmlns:sodipodi="http://sodipodi.sourceforge.net/DTD/sodipodi-0.dtd"
   xmlns="http://www.w3.org/2000/svg"
   xmlns:svg="http://www.w3.org/2000/svg">
  <defs
     id="defs3148" />
  <sodipodi:namedview
     id="namedview3146"
     pagecolor="#505050"
     bordercolor="#eeeeee"
     borderopacity="1"
     inkscape:pageshadow="0"
     inkscape:pageopacity="0"
     inkscape:pagecheckerboard="0"
     showgrid="false"
     inkscape:zoom="7.6361735"
     inkscape:cx="14.470598"
     inkscape:cy="19.250479"
     inkscape:window-width="1248"
     inkscape:window-height="774"
     inkscape:window-x="0"
     inkscape:window-y="23"
     inkscape:window-maximized="0"
     inkscape:current-layer="svg3144" />
  <path
     fill="#ff6f02"
     d="M31 7.002l13 1.686L33.296 19 31 7.002zM17 41L4 39.314 14.704 29 17 41z"
     id="path3140"
     style="fill:#006ba6;fill-opacity:1" />
  <path
     fill="#ff6f00"
     d="M8 24c0-8.837 7.163-16 16-16 1.024 0 2.021.106 2.992.29l.693-3.865C26.525 4.112 25.262 4.005 24 4.005c-11.053 0-20 8.947-20 20 0 4.844 1.686 9.474 4.844 13.051l3.037-2.629C9.468 31.625 8 27.987 8 24zM39.473 11.267l-3.143 2.537C38.622 16.572 40 20.125 40 24c0 8.837-7.163 16-16 16-1.029 0-2.033-.106-3.008-.292l-.676 3.771c1.262.21 2.525.317 3.684.317 11.053 0 20-8.947 20-20C44 19.375 42.421 14.848 39.473 11.267z"
     id="path3142"
     style="fill:#006ba6;fill-opacity:1" />
</svg>
